<svg xmlns="http://www.w3.org/2000/svg">
	<symbol id="rating-1" viewBox="0 0 104 20">
		<title>1 star</title>
		<rect fill="#eb672b" width="20" height="20" rx="2"/>
		<polygon fill="#fff" opacity="0.8" points="10 3.17 11.77 8.29 17.18 8.39 12.86 11.65 14.44 16.83 10 13.73 5.56 16.83 7.14 11.65 2.82 8.39 8.23 8.29 10 3.17"/>
		<rect fill="#c1ccc8" x="21" width="20" height="20" rx="2"/>
		<polygon fill="#fff" opacity="0.8" points="31 3.17 32.77 8.29 38.18 8.39 33.86 11.65 35.44 16.83 31 13.73 26.56 16.83 28.14 11.65 23.82 8.39 29.23 8.29 31 3.17"/>
		<rect fill="#c1ccc8" x="42" width="20" height="20" rx="2"/>
		<polygon fill="#fff" opacity="0.8" points="52 3.17 53.77 8.29 59.18 8.39 54.86 11.65 56.44 16.83 52 13.73 47.56 16.83 49.14 11.65 44.82 8.39 50.23 8.29 52 3.17"/>
		<rect fill="#c1ccc8" x="63" width="20" height="20" rx="2"/>
		<polygon fill="#fff" opacity="0.8" points="73 3.17 74.77 8.29 80.18 8.39 75.86 11.65 77.44 16.83 73 13.73 68.56 16.83 70.14 11.65 65.82 8.39 71.23 8.29 73 3.17"/>
		<rect fill="#c1ccc8" x="84" width="20" height="20" rx="2"/>
		<polygon fill="#fff" opacity="0.8" points="94 3.17 95.77 8.29 101.18 8.39 96.86 11.65 98.44 16.83 94 13.73 89.56 16.83 91.14 11.65 86.82 8.39 92.23 8.29 94 3.17"/>
	</symbol>

	<symbol id="rating-2" viewBox="0 0 104 20">
		<title>2 stars</title>
		<rect fill="#ebbd35" width="20" height="20" rx="2"/>
		<polygon fill="#fff" opacity="0.8" points="10 3.17 11.77 8.29 17.18 8.39 12.86 11.65 14.44 16.83 10 13.73 5.56 16.83 7.14 11.65 2.82 8.39 8.23 8.29 10 3.17"/>
		<rect fill="#ebbd35" x="21" width="20" height="20" rx="2"/>
		<polygon fill="#fff" opacity="0.8" points="31 3.17 32.77 8.29 38.18 8.39 33.86 11.65 35.44 16.83 31 13.73 26.56 16.83 28.14 11.65 23.82 8.39 29.23 8.29 31 3.17"/>
		<rect fill="#c1ccc8" x="42" width="20" height="20" rx="2"/>
		<polygon fill="#fff" opacity="0.8" points="52 3.17 53.77 8.29 59.18 8.39 54.86 11.65 56.44 16.83 52 13.73 47.56 16.83 49.14 11.65 44.82 8.39 50.23 8.29 52 3.17"/>
		<rect fill="#c1ccc8" x="63" width="20" height="20" rx="2"/>
		<polygon fill="#fff" opacity="0.8" points="73 3.17 74.77 8.29 80.18 8.39 75.86 11.65 77.44 16.83 73 13.73 68.56 16.83 70.14 11.65 65.82 8.39 71.23 8.29 73 3.17"/>
		<rect fill="#c1ccc8" x="84" width="20" height="20" rx="2"/>
		<polygon fill="#fff" opacity="0.8" points="94 3.17 95.77 8.29 101.18 8.39 96.86 11.65 98.44 16.83 94 13.73 89.56 16.83 91.14 11.65 86.82 8.39 92.23 8.29 94 3.17"/>
	</symbol>

	<symbol id="rating-3" viewBox="0 0 104 20">
		<title>3 stars</title>
		<rect fill="#d2ea7e" width="20" height="20" rx="2"/>
		<polygon fill="#fff" opacity="0.8" points="10 3.17 11.77 8.29 17.18 8.39 12.86 11.65 14.44 16.83 10 13.73 5.56 16.83 7.14 11.65 2.82 8.39 8.23 8.29 10 3.17"/>
		<rect fill="#d2ea7e" x="21" width="20" height="20" rx="2"/>
		<polygon fill="#fff" opacity="0.8" points="31 3.17 32.77 8.29 38.18 8.39 33.86 11.65 35.44 16.83 31 13.73 26.56 16.83 28.14 11.65 23.82 8.39 29.23 8.29 31 3.17"/>
		<rect fill="#d2ea7e" x="42" width="20" height="20" rx="2"/>
		<polygon fill="#fff" opacity="0.8" points="52 3.17 53.77 8.29 59.18 8.39 54.86 11.65 56.44 16.83 52 13.73 47.56 16.83 49.14 11.65 44.82 8.39 50.23 8.29 52 3.17"/>
		<rect fill="#c1ccc8" x="63" width="20" height="20" rx="2"/>
		<polygon fill="#fff" opacity="0.8" points="73 3.17 74.77 8.29 80.18 8.39 75.86 11.65 77.44 16.83 73 13.73 68.56 16.83 70.14 11.65 65.82 8.39 71.23 8.29 73 3.17"/>
		<rect fill="#c1ccc8" x="84" width="20" height="20" rx="2"/>
		<polygon fill="#fff" opacity="0.8" points="94 3.17 95.77 8.29 101.18 8.39 96.86 11.65 98.44 16.83 94 13.73 89.56 16.83 91.14 11.65 86.82 8.39 92.23 8.29 94 3.17"/>
	</symbol>

	<symbol id="rating-4" viewBox="0 0 104 20">
		<title>4 stars</title>
		<rect fill="#04cf7e" width="20" height="20" rx="2"/>
		<polygon fill="#fff" opacity="0.8" points="10 3.17 11.77 8.29 17.18 8.39 12.86 11.65 14.44 16.83 10 13.73 5.56 16.83 7.14 11.65 2.82 8.39 8.23 8.29 10 3.17"/>
		<rect fill="#04cf7e" x="21" width="20" height="20" rx="2"/>
		<polygon fill="#fff" opacity="0.8" points="31 3.17 32.77 8.29 38.18 8.39 33.86 11.65 35.44 16.83 31 13.73 26.56 16.83 28.14 11.65 23.82 8.39 29.23 8.29 31 3.17"/>
		<rect fill="#04cf7e" x="42" width="20" height="20" rx="2"/>
		<polygon fill="#fff" opacity="0.8" points="52 3.17 53.77 8.29 59.18 8.39 54.86 11.65 56.44 16.83 52 13.73 47.56 16.83 49.14 11.65 44.82 8.39 50.23 8.29 52 3.17"/>
		<rect fill="#04cf7e" x="63" width="20" height="20" rx="2"/>
		<polygon fill="#fff" opacity="0.8" points="73 3.17 74.77 8.29 80.18 8.39 75.86 11.65 77.44 16.83 73 13.73 68.56 16.83 70.14 11.65 65.82 8.39 71.23 8.29 73 3.17"/>
		<rect fill="#c1ccc8" x="84" width="20" height="20" rx="2"/>
		<polygon fill="#fff" opacity="0.8" points="94 3.17 95.77 8.29 101.18 8.39 96.86 11.65 98.44 16.83 94 13.73 89.56 16.83 91.14 11.65 86.82 8.39 92.23 8.29 94 3.17"/>
	</symbol>

	<symbol id="rating-5" viewBox="0 0 104 20">
		<title>5 stars</title>
		<rect fill="#04ad8c" width="20" height="20" rx="2"/>
		<polygon fill="#fff" opacity="0.8" points="10 3.17 11.77 8.29 17.18 8.39 12.86 11.65 14.44 16.83 10 13.73 5.56 16.83 7.14 11.65 2.82 8.39 8.23 8.29 10 3.17"/>
		<rect fill="#04ad8c" x="21" width="20" height="20" rx="2"/>
		<polygon fill="#fff" opacity="0.8" points="31 3.17 32.77 8.29 38.18 8.39 33.86 11.65 35.44 16.83 31 13.73 26.56 16.83 28.14 11.65 23.82 8.39 29.23 8.29 31 3.17"/>
		<rect fill="#04ad8c" x="42" width="20" height="20" rx="2"/>
		<polygon fill="#fff" opacity="0.8" points="52 3.17 53.77 8.29 59.18 8.39 54.86 11.65 56.44 16.83 52 13.73 47.56 16.83 49.14 11.65 44.82 8.39 50.23 8.29 52 3.17"/>
		<rect fill="#04ad8c" x="63" width="20" height="20" rx="2"/>
		<polygon fill="#fff" opacity="0.8" points="73 3.17 74.77 8.29 80.18 8.39 75.86 11.65 77.44 16.83 73 13.73 68.56 16.83 70.14 11.65 65.82 8.39 71.23 8.29 73 3.17"/>
		<rect fill="#04ad8c" x="84" width="20" height="20" rx="2"/>
		<polygon fill="#fff" opacity="0.8" points="94 3.17 95.77 8.29 101.18 8.39 96.86 11.65 98.44 16.83 94 13.73 89.56 16.83 91.14 11.65 86.82 8.39 92.23 8.29 94 3.17"/>
	</symbol>

</svg>



