<svg id="Layer_1" data-name="Layer 1" xmlns="http://www.w3.org/2000/svg" xmlns:xlink="http://www.w3.org/1999/xlink" viewBox="0 0 1920 1080"><defs><style>.cls-1{fill:#fff0be;}.cls-2{fill:#ffe100;}.cls-3{fill:#cff0cf;}.cls-4{fill:#13cc11;}.cls-5{fill:#333;}.cls-6{fill:#f9d4d3;}.cls-7{fill:#fa2b25;}.cls-14,.cls-8{fill:none;}.cls-9{fill:#fff;}.cls-10{fill:#c6e9f8;}.cls-11{fill:#1eb0ff;}.cls-12{fill:#ffd900;}.cls-13{fill:#04b592;}.cls-14{stroke:#adfbeb;stroke-linecap:round;stroke-linejoin:round;stroke-width:2px;}</style><symbol id="_.icon-photo" data-name=".icon-photo" viewBox="0 0 80 80"><rect class="cls-8" width="80" height="80"/><polygon class="cls-9" points="44.23 36.04 35.32 44.94 31.45 41.07 16.52 56 24.27 56 46.38 56 64.19 56 44.23 36.04"/><circle class="cls-9" cx="30.89" cy="31.89" r="4.89"/></symbol><symbol id="_.icon-dribbble-2" data-name=".icon-dribbble" viewBox="0 0 24 24"><path class="cls-5" d="M11.45,10a18.19,18.19,0,0,1-5.06.65,5.79,5.79,0,0,1,3-3.78A25.56,25.56,0,0,1,11.45,10Zm1,1.93c-.12-.27-.25-.55-.39-.83a19.45,19.45,0,0,1-5.8.77V12a5.72,5.72,0,0,0,1.34,3.69A9,9,0,0,1,12.42,11.91Zm-4,4.65a5.72,5.72,0,0,0,5.62.83A22.59,22.59,0,0,0,12.88,13,7.82,7.82,0,0,0,8.45,16.56Zm7.07-9.13A5.68,5.68,0,0,0,12,6.22a5.58,5.58,0,0,0-1.42.18,27.89,27.89,0,0,1,2,3.17A7.08,7.08,0,0,0,15.52,7.43ZM24,12A12,12,0,1,1,12,0,12,12,0,0,1,24,12Zm-5,0a7,7,0,1,0-7,7A7,7,0,0,0,19,12Zm-5.82-1.35c.15.33.3.65.44,1a12.61,12.61,0,0,1,4.15,0,5.78,5.78,0,0,0-1.36-3.4A8.17,8.17,0,0,1,13.18,10.65Zm.91,2.13a24.31,24.31,0,0,1,1.12,4,5.83,5.83,0,0,0,2.5-3.91A11.79,11.79,0,0,0,14.09,12.78Z"/></symbol><symbol id="_.icon-benefits" data-name=".icon-benefits" viewBox="0 0 18 18"><circle class="cls-1" cx="9" cy="9" r="9"/><path class="cls-2" d="M7.19,10l-.78,2.4a.36.36,0,0,0,.55.4l5.89-4.28a.36.36,0,0,0-.21-.65H10.12L9.34,5.43a.35.35,0,0,0-.68,0L7.88,7.82H5.36a.36.36,0,0,0-.21.65Z"/><path class="cls-2" d="M11,10.43l-1.71,1L11,12.75a.36.36,0,0,0,.55-.4Z"/></symbol><symbol id="_.icon-health" data-name=".icon-health" viewBox="0 0 18 18"><circle class="cls-6" cx="9" cy="9" r="9"/><path class="cls-7" d="M12.37,7.65h-2v-2a.22.22,0,0,0-.23-.22H7.88a.22.22,0,0,0-.23.22v2h-2a.22.22,0,0,0-.22.23v2.24a.22.22,0,0,0,.22.23h2v2a.22.22,0,0,0,.23.22h2.24a.22.22,0,0,0,.23-.22v-2h2a.22.22,0,0,0,.22-.23V7.88A.22.22,0,0,0,12.37,7.65Z"/></symbol><symbol id="_.icon-compensation" data-name=".icon-compensation" viewBox="0 0 18 18"><circle class="cls-3" cx="9" cy="9" r="9"/><path class="cls-4" d="M14.35,8.73,11.51,4.78a.27.27,0,0,0-.38-.06L4.56,9.48a.27.27,0,0,0-.06.38l2.86,4a.27.27,0,0,0,.38.06l6.55-4.76A.27.27,0,0,0,14.35,8.73Zm-4,1.89c-.48.35-1.3,0-1.82-.68S8,8.34,8.48,8s1.3,0,1.83.68S10.87,10.27,10.38,10.62Z"/><path class="cls-4" d="M8,4.11a.27.27,0,0,0-.36.12L5.8,7.91,9.8,5Z"/></symbol><symbol id="_.icon-timeoff" data-name=".icon-timeoff" viewBox="0 0 18 18"><circle class="cls-10" cx="9" cy="9" r="9"/><path class="cls-11" d="M13,5.93H11.36V5.7a.23.23,0,0,0-.23-.24h-.48a.23.23,0,0,0-.23.24v.23H7.58V5.7a.23.23,0,0,0-.23-.24H6.87a.23.23,0,0,0-.23.24v.23H5a.23.23,0,0,0-.23.24V7.35h8.5V6.17A.23.23,0,0,0,13,5.93Z"/><path class="cls-11" d="M4.75,11.84a.23.23,0,0,0,.23.23H9.83a2.12,2.12,0,0,1,1.77-3.3,2.1,2.1,0,0,1,1.65.8V7.82H4.75ZM7.58,9a.23.23,0,0,1,.24-.23h.47A.23.23,0,0,1,8.53,9v.48a.23.23,0,0,1-.24.23H7.82a.23.23,0,0,1-.24-.23Zm0,1.42a.24.24,0,0,1,.24-.24h.47a.24.24,0,0,1,.24.24v.47a.24.24,0,0,1-.24.24H7.82a.24.24,0,0,1-.24-.24ZM5.69,9a.23.23,0,0,1,.24-.23H6.4A.23.23,0,0,1,6.64,9v.48a.23.23,0,0,1-.24.23H5.93a.23.23,0,0,1-.24-.23Zm0,1.42a.24.24,0,0,1,.24-.24H6.4a.24.24,0,0,1,.24.24v.47a.24.24,0,0,1-.24.24H5.93a.24.24,0,0,1-.24-.24Z"/><path class="cls-11" d="M11.6,9.24a1.65,1.65,0,1,0,1.65,1.65A1.65,1.65,0,0,0,11.6,9.24Zm.94,1.89H11.6a.24.24,0,0,1-.24-.24V10a.24.24,0,0,1,.24-.24.23.23,0,0,1,.23.24v.71h.71a.23.23,0,0,1,.24.23A.24.24,0,0,1,12.54,11.13Z"/></symbol></defs><use width="80" height="80" transform="translate(25 18)" xlink:href="#_.icon-photo"/><use width="24" height="24" transform="translate(125 18)" xlink:href="#_.icon-dribbble-2"/><path class="cls-12" d="M1009.11,517.59a15.94,15.94,0,0,1-4.31-5.34,26.3,26.3,0,0,1-2.58-7.44,29.38,29.38,0,0,1-.31-8.73,25.75,25.75,0,0,1,2.66-8.9q3.91-8.25,15.2-16a132.53,132.53,0,0,1,27.76-14,270.24,270.24,0,0,1,37.3-10.86,335.55,335.55,0,0,1,43.81-6.57q4.69-.39,13.92-.59a130.06,130.06,0,0,1,19.91,1.29,102.72,102.72,0,0,1,21.49,5.34,48.07,48.07,0,0,1,18.14,11.57,37.49,37.49,0,0,1,5.7,7.66,32.51,32.51,0,0,1,3.83,10.4,31.42,31.42,0,0,1-.2,12.07,29.74,29.74,0,0,1-6.57,12.85,69.47,69.47,0,0,1-12.55,11.49,124.23,124.23,0,0,1-16.29,9.92,192.91,192.91,0,0,1-18.54,8.24q-9.7,3.72-19.12,6.48,5.09,3.35,11.18,7.55t12.36,8.73q6.25,4.51,12.46,8.9a110.38,110.38,0,0,0,11.72,7.32,69.51,69.51,0,0,0,9.81,4.5,51.64,51.64,0,0,0,11.48,2.94,36.82,36.82,0,0,0,11.09-.11,14.82,14.82,0,0,0,8.91-4.8,8.57,8.57,0,0,1,8.1-2.35,22.05,22.05,0,0,1,10.68,5.78,23.4,23.4,0,0,1,6.93,10.06,8.07,8.07,0,0,1-1.68,8.34,34.12,34.12,0,0,1-13.72,9.31,48.69,48.69,0,0,1-16.69,2.85,68.19,68.19,0,0,1-14.24-1.57,84.55,84.55,0,0,1-14.25-4.42,98.83,98.83,0,0,1-13.24-6.57,73.55,73.55,0,0,1-11.24-7.94q-3.78-3.18-10.9-8.67t-15.59-11.48q-8.44-6-17.17-11.77t-15.31-9.53q-9.61,1.38-15.9,1.78h-.27a15.93,15.93,0,0,1-7.26-1.78,24,24,0,0,1-6.29-4.5q-6.27,7.85-13,17.46t-14.25,22.76a9.08,9.08,0,0,1-4.22,3.95,14.06,14.06,0,0,1-5.79,1.18,18.4,18.4,0,0,1-5-.7,31.35,31.35,0,0,1-4.57-1.69,14.94,14.94,0,0,1-6.57-6.28,8.09,8.09,0,0,1-.11-7.46,258.8,258.8,0,0,1,15.2-28.94q8.54-14,17.67-26.39t18-22.45a209,209,0,0,1,16.57-17c-3.79,1.05-7.36,2.13-10.68,3.24s-6.29,2.2-8.9,3.24l-8.64,3.72q-6.48,2.75-14.12,6.18a151.31,151.31,0,0,0-14.24,7.27,55,55,0,0,0-10.9,8,11.34,11.34,0,0,0-4,8.56V516l-1.78,1.57a7.66,7.66,0,0,1-5.34,2.16A9.05,9.05,0,0,1,1009.11,517.59Zm124.39-52q-6.29.78-13.54,2.06c-4.83.86-9.73,1.8-14.7,2.85a28,28,0,0,1,8,2.46,29.32,29.32,0,0,1,6.43,4,9.64,9.64,0,0,1,3.56,7.12,9.27,9.27,0,0,1-1.78,5.79q-5.9,7.46-11.29,13.72t-10.48,12l3.13,1.37q12.36-2.36,24.63-5.7a180.87,180.87,0,0,0,22.77-7.69,110,110,0,0,0,18.45-9.7,39.37,39.37,0,0,0,11.87-11.58,19.73,19.73,0,0,0,2.16-4.8,6.54,6.54,0,0,0-.79-5.79,13.54,13.54,0,0,0-3.24-2.94,22.86,22.86,0,0,0-7.74-3.11,73.42,73.42,0,0,0-14.25-1.57A153,153,0,0,0,1133.5,465.64Z"/><path class="cls-12" d="M1255.93,483.07a47.65,47.65,0,0,1,11.68.69,42.19,42.19,0,0,1,10.68,3.33,20.33,20.33,0,0,1,7.46,5.79,10.7,10.7,0,0,1,2.16,8.24,25.43,25.43,0,0,1-3.33,8.25,32.21,32.21,0,0,1-8.91,9.22,63.82,63.82,0,0,1-16,8.14,105.24,105.24,0,0,1-24.63,5.2,15.08,15.08,0,0,0,.2,6.48,5.33,5.33,0,0,0,3.56,3.72,21.76,21.76,0,0,0,13.44,1.28,49.62,49.62,0,0,0,14.25-5.5,99.79,99.79,0,0,0,13.73-9.31q6.57-5.36,11.87-10.21a11.58,11.58,0,0,1,5.34-3.24,5.52,5.52,0,0,1,4.31.29,3.54,3.54,0,0,1,1.37,3.56,12.18,12.18,0,0,1-3.33,6.28,102,102,0,0,1-13.14,13.14,109.2,109.2,0,0,1-17.27,12,90.68,90.68,0,0,1-19.64,8.21,54.49,54.49,0,0,1-21,1.78,35.41,35.41,0,0,1-8.44-2.35,21.9,21.9,0,0,1-7.66-5.34,24.53,24.53,0,0,1-5.19-8.91,29.84,29.84,0,0,1-1.09-12.94,40.56,40.56,0,0,1,5.48-15.9,68.66,68.66,0,0,1,11.77-15.1,72.67,72.67,0,0,1,15.6-11.57A40.6,40.6,0,0,1,1255.93,483.07Zm1.37,18.05a15.36,15.36,0,0,0-4.81,2.26,28.43,28.43,0,0,0-4.81,4.22,40.58,40.58,0,0,0-4.41,5.79q-2.07,3.24-3.83,6.57a49.1,49.1,0,0,0,15.4-5.5,31.69,31.69,0,0,0,9-7.12c1.77-2.3,2.19-4.13,1.28-5.51s-3.53-1.62-7.85-.73Z"/><path class="cls-12" d="M1316.16,487.18a25.86,25.86,0,0,1,6.18-2,21.46,21.46,0,0,1,6.09-.28,13.49,13.49,0,0,1,4.9,1.37,5,5,0,0,1,2.65,2.85c.65,1.82-.16,4.41-2.46,7.74a111.16,111.16,0,0,0-7.35,12.86,68.58,68.58,0,0,1,10.2-13.05,49.61,49.61,0,0,1,11.38-8.53,30.27,30.27,0,0,1,11.88-3.56,23.65,23.65,0,0,1,11.48,1.78,6.4,6.4,0,0,1,3.72,4,15.06,15.06,0,0,1,.59,5.34,34.87,34.87,0,0,1-1.57,6.68,96.43,96.43,0,0,1,7.66-6.48,68.89,68.89,0,0,1,7.83-5.4,75.08,75.08,0,0,1,9-4.7,22.44,22.44,0,0,1,9.31-1.48,19.84,19.84,0,0,1,8.25,2.27,15.08,15.08,0,0,1,5.7,5.2,11.62,11.62,0,0,1,1.78,7,15.87,15.87,0,0,1-2.85,6.67c-1.77,2.75-3.9,5.71-6.38,8.91s-5.16,6.36-8,9.51-5.47,6.17-7.75,8.9a78.26,78.26,0,0,0-5.34,7c-1.19,1.9-1.49,3-.89,3.44a3.91,3.91,0,0,0,3.43-.7,50.78,50.78,0,0,0,5.7-3.56q3.24-2.27,7-5.34t7.13-6l6.09-5.35c1.82-1.63,3.19-2.91,4.11-3.82a7.89,7.89,0,0,1,4-2.35,4,4,0,0,1,3.14.39,3,3,0,0,1,1,2.74,10.54,10.54,0,0,1-2.07,4.9,65.49,65.49,0,0,1-6.77,7.46q-4.61,4.51-10,9.31t-10.79,8.9a68,68,0,0,1-9.12,6.09,20.69,20.69,0,0,1-8.9,2.16,29.11,29.11,0,0,1-9.9-1.29,21,21,0,0,1-8.05-4.5,10,10,0,0,1-3.33-7.75,12.54,12.54,0,0,1,2.44-6.62,60.64,60.64,0,0,1,5.59-7.26q3.24-3.57,6.77-7.13a82.74,82.74,0,0,0,6-6.57,20.54,20.54,0,0,0,3.33-5.34,2.6,2.6,0,0,0-1-3.53l-.06,0c-1.3-.78-3.27-.19-5.89,1.78a70.81,70.81,0,0,0-8.72,8.33q-4.82,5.34-9.92,11.88t-9.51,12.55q-4.41,6-7.55,10.51t-3.92,5.52a7.41,7.41,0,0,1-4.61,2.06A13.93,13.93,0,0,1,1331,560a12.85,12.85,0,0,1-5.89-4.22,12.15,12.15,0,0,1-2.26-8.33,12.38,12.38,0,0,1,2.35-5.7q2.36-3.72,5.59-8.14t6.84-9.19q3.55-4.8,6.37-8.9a46.79,46.79,0,0,0,4-6.87c.85-1.9.76-3.09-.29-3.56-1.3-.66-3.36.1-6.18,2.26a94.8,94.8,0,0,0-9.51,8.63q-5.34,5.34-11.18,12.08t-11.09,12.85q-5.2,6.18-9.12,10.79a63.58,63.58,0,0,1-5.34,5.79,10.54,10.54,0,0,1-5.59,2.15,18.72,18.72,0,0,1-6.87-.5,17.21,17.21,0,0,1-5.86-2.67,5.86,5.86,0,0,1-2.65-4.5q-.19-1.79,2.35-7.12t6.57-12.16q4-6.88,9-14.52T1302,503.9q4.7-6.67,8.53-11.29A21.35,21.35,0,0,1,1316.16,487.18Z"/><path class="cls-12" d="M1473.51,484.63a68.55,68.55,0,0,1,22.76-1.19q10.39,1.37,16,6.87t4.7,15.21q-.88,9.71-11.09,23.84a77.2,77.2,0,0,1-15.31,15.9,78.66,78.66,0,0,1-17.27,10.2,68.37,68.37,0,0,1-17.56,4.9,61,61,0,0,1-16,.2,34.22,34.22,0,0,1-12.82-4.12,17.56,17.56,0,0,1-7.55-8,24.39,24.39,0,0,1-.39-18.26,57.58,57.58,0,0,1,11.38-19.31,85.69,85.69,0,0,1,19.43-16.49A71.49,71.49,0,0,1,1473.51,484.63Zm-21.37,59.06a14.89,14.89,0,0,0,10.31-2.54,49.66,49.66,0,0,0,10.31-8.64,70.09,70.09,0,0,0,8.73-11.68,58,58,0,0,0,5.59-11.87,17.5,17.5,0,0,0,.89-9.23q-.88-3.72-5.34-3.72-2.55,0-7.12,3.33a76.39,76.39,0,0,0-9.62,8.44,114,114,0,0,0-9.63,11.09,67.67,67.67,0,0,0-7.12,11.29,18.5,18.5,0,0,0-2.27,9.12q.36,3.81,5.26,4.4Z"/><path class="cls-12" d="M1534.92,484.24q2.74-1.17,6.48-2.54c2.5-.92,5.25-1.83,8.25-2.75q4.11-4.89,7.74-8.53a32.5,32.5,0,0,1,6.38-5.19,94.55,94.55,0,0,1,17.47-8.91q6.48-2.15,8.63,2.74.39,1-1.48,4t-5.2,7.55a117.38,117.38,0,0,1,12.36-1.78q5.12-.42,6.48.5a6.28,6.28,0,0,1,2,2.61,8.07,8.07,0,0,1,.7,4.22,12.07,12.07,0,0,1-1.78,5.11,16.4,16.4,0,0,1-5.34,5.11,17.49,17.49,0,0,1-4.9,2.07,69.53,69.53,0,0,1-7.26,1.57c-2.75.46-5.71.89-8.91,1.28s-6.4.72-9.61,1q-5.7,7.45-11.1,14.9t-9.31,14a83.51,83.51,0,0,0-5.89,11.49q-2,4.9-.39,6.87a6.58,6.58,0,0,0,7.85,2.26,36.57,36.57,0,0,0,10.79-5.5,95.81,95.81,0,0,0,11.09-9.22q5.34-5.21,8.53-8.73a11.15,11.15,0,0,1,5.89-4,4.05,4.05,0,0,1,4.12,1.17,5.83,5.83,0,0,1,1,4.61,11.35,11.35,0,0,1-3.37,6q-2.94,3.36-7.94,8.44t-10.68,10.21a131.17,131.17,0,0,1-11.29,9.22,32.65,32.65,0,0,1-10,5.34,63,63,0,0,1-10.4,1.68,38.76,38.76,0,0,1-11.37-.7,23.76,23.76,0,0,1-9.42-4.22,11.53,11.53,0,0,1-4.42-8.9,21.3,21.3,0,0,1,1.78-9.42,116.5,116.5,0,0,1,6.2-13.07q3.83-7.12,8.9-15.1t10.31-15.4l-5.89.59c-1.7.26-2.78,0-3.24-.79a3.51,3.51,0,0,1-.09-2.94,10.93,10.93,0,0,1,2.35-3.72A13.92,13.92,0,0,1,1534.92,484.24Z"/><path class="cls-12" d="M1624.2,483.07a47.62,47.62,0,0,1,11.68.69,42.06,42.06,0,0,1,10.68,3.33,20.33,20.33,0,0,1,7.46,5.79,10.62,10.62,0,0,1,2.16,8.24,25.21,25.21,0,0,1-3.33,8.25,32.31,32.31,0,0,1-8.9,9.22,63.88,63.88,0,0,1-16,8.14,105.27,105.27,0,0,1-24.62,5.2,15.08,15.08,0,0,0,.19,6.48,5.35,5.35,0,0,0,3.56,3.72,21.79,21.79,0,0,0,13.45,1.28,49.56,49.56,0,0,0,14.24-5.5,99.92,99.92,0,0,0,13.82-9.33q6.57-5.34,11.87-10.2a11.58,11.58,0,0,1,5.35-3.25,5.53,5.53,0,0,1,4.31.29,3.58,3.58,0,0,1,1.37,3.56,12.32,12.32,0,0,1-3.32,6.27A103.24,103.24,0,0,1,1655,538.39a109.14,109.14,0,0,1-17.27,12,90.53,90.53,0,0,1-19.82,8.25,54.49,54.49,0,0,1-21,1.78,35.41,35.41,0,0,1-8.44-2.35,21.77,21.77,0,0,1-7.65-5.34,24.41,24.41,0,0,1-5.2-8.91,29.84,29.84,0,0,1-1.09-12.94,40.72,40.72,0,0,1,5.48-15.9,68.66,68.66,0,0,1,11.77-15.1,72.67,72.67,0,0,1,15.6-11.57A40.61,40.61,0,0,1,1624.2,483.07Zm1.37,18.05a15.36,15.36,0,0,0-4.81,2.26,28.36,28.36,0,0,0-4.8,4.22,40.65,40.65,0,0,0-4.42,5.79c-1.38,2.16-2.65,4.35-3.83,6.57a49.1,49.1,0,0,0,15.4-5.5,31.56,31.56,0,0,0,9-7.12c1.77-2.3,2.2-4.13,1.28-5.51s-3.53-1.62-7.85-.73Z"/><path class="cls-12" d="M1678,496.79a24.07,24.07,0,0,1,6.67-3.56,34.8,34.8,0,0,1,8.44-2.22,14.67,14.67,0,0,1,7,.59,3.69,3.69,0,0,1,2.27,4.61,30.36,30.36,0,0,1-3.89,9.22q-3.24,5.7-8.52,13.73T1677.62,538q-7,10.79-15.21,24.52a55,55,0,0,1-13.85,16.29,48.55,48.55,0,0,1-14.62,7.65,37.42,37.42,0,0,1-13.25,1.78,39.69,39.69,0,0,1-9.61-1.56,17.4,17.4,0,0,1-6.11-3.53,13.37,13.37,0,0,1-3.56-4.89,9.35,9.35,0,0,1-.59-5.35,7,7,0,0,1,2.85-4.41,10.09,10.09,0,0,1,7.12-2.46,12,12,0,0,1,5.34,2.26,27.31,27.31,0,0,1,4,3.56,3.34,3.34,0,0,0,3.24,1.48q2.94-.58,6.68-5.34a117,117,0,0,0,7.94-11.68q4.21-7,8.9-15.51t9.81-16.88q5.12-8.32,10.4-15.6A64,64,0,0,1,1678,496.79Zm18.83-37.67a19.11,19.11,0,0,1,11.77-1.18,15.38,15.38,0,0,1,7.94,4.7,11.5,11.5,0,0,1,2.75,7.95,11.66,11.66,0,0,1-4,8.33,20.14,20.14,0,0,1-10.4,6.18,13.14,13.14,0,0,1-8.9-1.18,14.13,14.13,0,0,1-5.79-6.09,13.77,13.77,0,0,1-1.28-8.72,12.31,12.31,0,0,1,2.94-6.38A12.91,12.91,0,0,1,1696.79,459.12Z"/><path class="cls-12" d="M1753.29,484.63a68.55,68.55,0,0,1,22.76-1.19q10.4,1.37,16,6.87t4.7,15.21q-.88,9.71-11.09,23.84a77.2,77.2,0,0,1-15.31,15.9,78.5,78.5,0,0,1-17.28,10.2,68.18,68.18,0,0,1-17.55,4.9,61,61,0,0,1-16,.2,34.22,34.22,0,0,1-12.82-4.12,17.5,17.5,0,0,1-7.55-8,24.39,24.39,0,0,1-.39-18.26,57.58,57.58,0,0,1,11.38-19.31,85.69,85.69,0,0,1,19.43-16.49A71.49,71.49,0,0,1,1753.29,484.63Zm-21.37,59.06a14.89,14.89,0,0,0,10.31-2.54,49.92,49.92,0,0,0,10.31-8.64,70.09,70.09,0,0,0,8.73-11.68,58,58,0,0,0,5.59-11.87,17.5,17.5,0,0,0,.89-9.23c-.59-2.48-2.38-3.72-5.34-3.72-1.7,0-4.07,1.11-7.13,3.33a76.3,76.3,0,0,0-9.61,8.44,114,114,0,0,0-9.51,11.09,68.32,68.32,0,0,0-7.12,11.29,18.39,18.39,0,0,0-2.26,9.12q.23,3.81,5.13,4.4Z"/><path class="cls-13" d="M1205,1055.26c0,1.16-1.55,2-2,3s0,2.73-.75,3.52-2.47.31-3.52.74-1.86,2-3,2-2-1.55-3-2-2.73,0-3.52-.74-.31-2.48-.75-3.52-2-1.86-2-3,1.55-2,2-3,0-2.74.75-3.53,2.48-.3,3.52-.74,1.86-2,3-2,2,1.55,3,2,2.74,0,3.52.74.31,2.48.75,3.53S1205,1054.1,1205,1055.26Z"/><polyline class="cls-14" points="1199.92 1053.25 1195.05 1058.12 1192.5 1055.57"/><use width="18" height="18" transform="translate(25.55 109.76)" xlink:href="#_.icon-benefits"/><use width="18" height="18" transform="translate(48.64 109.76)" xlink:href="#_.icon-health"/><use width="18" height="18" transform="translate(71.54 109.76)" xlink:href="#_.icon-compensation"/><use width="18" height="18" transform="translate(93.64 109.76)" xlink:href="#_.icon-timeoff"/></svg>