<svg id="Layer_1" data-name="Layer 1" xmlns="http://www.w3.org/2000/svg" xmlns:xlink="http://www.w3.org/1999/xlink" viewBox="0 0 1920 1080"><defs><style>.cls-1{fill:#333;}.cls-2{fill:none;}.cls-3{fill:#fff;}</style><symbol id="_.icon-photo" data-name=".icon-photo" viewBox="0 0 80 80"><rect class="cls-2" width="80" height="80"/><polygon class="cls-3" points="44.23 36.04 35.32 44.94 31.45 41.07 16.52 56 24.27 56 46.38 56 64.19 56 44.23 36.04"/><circle class="cls-3" cx="30.89" cy="31.89" r="4.89"/></symbol><symbol id="_.icon-dribbble-2" data-name=".icon-dribbble" viewBox="0 0 24 24"><path class="cls-1" d="M11.45,10a18.59,18.59,0,0,1-5.07.65,5.8,5.8,0,0,1,3-3.78A26.11,26.11,0,0,1,11.45,10Zm1,1.93q-.19-.42-.39-.84a19.57,19.57,0,0,1-5.8.77V12a5.75,5.75,0,0,0,1.34,3.69A9,9,0,0,1,12.42,11.91Zm-4,4.64a5.73,5.73,0,0,0,5.62.84A22.84,22.84,0,0,0,12.88,13,7.86,7.86,0,0,0,8.45,16.56Zm7.07-9.13a5.69,5.69,0,0,0-4.94-1,27.18,27.18,0,0,1,2,3.17A7.08,7.08,0,0,0,15.52,7.43ZM24,12A12,12,0,1,1,12,0,12,12,0,0,1,24,12Zm-5,0a7,7,0,1,0-7,7A7,7,0,0,0,19,12Zm-5.82-1.35c.16.32.31.65.45,1a12.49,12.49,0,0,1,4.14,0,5.75,5.75,0,0,0-1.35-3.4A8.27,8.27,0,0,1,13.18,10.65Zm.91,2.13a23.94,23.94,0,0,1,1.12,4,5.8,5.8,0,0,0,2.5-3.91A11.68,11.68,0,0,0,14.09,12.78Z"/></symbol></defs><title>sprite</title><use width="80" height="80" transform="translate(25 18)" xlink:href="#_.icon-photo"/><use width="24" height="24" transform="translate(125 18)" xlink:href="#_.icon-dribbble-2"/></svg>