<svg xmlns="http://www.w3.org/2000/svg">
	<symbol id="logo" class="logo" viewBox="0 0 228.81 55">
		<title>Remotejo logo</title>
		<path class="cls-1" d="M6.11,26.2a4.42,4.42,0,0,1-1.2-1.47,7.3,7.3,0,0,1-.71-2.07,8.22,8.22,0,0,1-.08-2.42,7.19,7.19,0,0,1,.74-2.48,12,12,0,0,1,4.22-4.44,36.7,36.7,0,0,1,7.71-3.89,74.47,74.47,0,0,1,10.35-3A92.64,92.64,0,0,1,39.27,4.58q1.31-.11,3.87-0.16a35.77,35.77,0,0,1,5.55.35,28.45,28.45,0,0,1,6,1.5,13.35,13.35,0,0,1,5,3.21,10.43,10.43,0,0,1,1.58,2.12,9,9,0,0,1,1.06,2.89,8.72,8.72,0,0,1-.05,3.35,8.27,8.27,0,0,1-1.82,3.57A19.21,19.21,0,0,1,57,24.59a34.3,34.3,0,0,1-4.52,2.75,52.84,52.84,0,0,1-5.15,2.29q-2.7,1-5.31,1.8,1.42,0.93,3.1,2.1t3.43,2.42Q50.27,37.2,52,38.39t3.24,2.07a19.38,19.38,0,0,0,2.72,1.25,14.45,14.45,0,0,0,3.19.82,10.27,10.27,0,0,0,3.08,0,4.11,4.11,0,0,0,2.45-1.33,2.38,2.38,0,0,1,2.29-.68,6.12,6.12,0,0,1,2.94,1.61,6.48,6.48,0,0,1,1.93,2.8,2.24,2.24,0,0,1-.46,2.31,9.46,9.46,0,0,1-3.81,2.59,13.5,13.5,0,0,1-4.63.79,18.78,18.78,0,0,1-4-.44A23.71,23.71,0,0,1,57,48.93a27.81,27.81,0,0,1-3.68-1.82,20.63,20.63,0,0,1-3.1-2.23q-1-.87-3-2.4t-4.33-3.19Q40.52,37.63,38.1,36t-4.27-2.64q-2.67.38-4.41,0.49H29.36a4.46,4.46,0,0,1-2-.49,6.63,6.63,0,0,1-1.74-1.25Q23.86,34.31,22,37T18,43.29a2.51,2.51,0,0,1-1.17,1.09,3.91,3.91,0,0,1-1.61.33,5.13,5.13,0,0,1-1.39-.19,8.91,8.91,0,0,1-1.28-.46,4.15,4.15,0,0,1-1.82-1.74,2.25,2.25,0,0,1,0-2.07,72,72,0,0,1,4.22-8q2.37-3.89,4.9-7.32t5-6.24a57.76,57.76,0,0,1,4.6-4.71q-1.58.44-2.94,0.9t-2.45.9l-2.4,1q-1.8.76-3.92,1.72a42.15,42.15,0,0,0-3.95,2,15.35,15.35,0,0,0-3,2.23,3.15,3.15,0,0,0-1.14,2.37v0.65l-0.49.44a2.12,2.12,0,0,1-1.47.6A2.53,2.53,0,0,1,6.11,26.2ZM40.63,11.77q-1.74.22-3.76,0.57t-4.08.79a7.74,7.74,0,0,1,2.23.68,8.32,8.32,0,0,1,1.8,1.12,2.69,2.69,0,0,1,1,2,2.58,2.58,0,0,1-.52,1.61q-1.63,2.07-3.13,3.81t-2.91,3.32L32.14,26q3.43-.65,6.83-1.58a50.42,50.42,0,0,0,6.32-2.15,30.64,30.64,0,0,0,5.12-2.7,10.94,10.94,0,0,0,3.29-3.21,5.48,5.48,0,0,0,.6-1.33,1.81,1.81,0,0,0-.22-1.61,3.77,3.77,0,0,0-.9-0.82A6.36,6.36,0,0,0,51,11.79a20.6,20.6,0,0,0-4-.44A42.61,42.61,0,0,0,40.63,11.77Z"/><path class="cls-1" d="M74.61,16.61a13.16,13.16,0,0,1,3.24.19,11.65,11.65,0,0,1,3,.93,5.67,5.67,0,0,1,2.07,1.61,3,3,0,0,1,.6,2.29,7,7,0,0,1-.93,2.29,8.93,8.93,0,0,1-2.45,2.56,17.67,17.67,0,0,1-4.44,2.26,29.08,29.08,0,0,1-6.83,1.44,4.17,4.17,0,0,0,.05,1.8,1.47,1.47,0,0,0,1,1,6,6,0,0,0,3.73.35,13.78,13.78,0,0,0,4-1.52,27.62,27.62,0,0,0,3.81-2.59q1.82-1.47,3.29-2.83a3.21,3.21,0,0,1,1.47-.9,1.53,1.53,0,0,1,1.2.08,1,1,0,0,1,.38,1,3.41,3.41,0,0,1-.93,1.74A28.78,28.78,0,0,1,83.16,32a30.35,30.35,0,0,1-4.79,3.32,25.17,25.17,0,0,1-5.5,2.29,15.09,15.09,0,0,1-5.83.49,9.88,9.88,0,0,1-2.34-.65,6,6,0,0,1-2.12-1.47,6.79,6.79,0,0,1-1.44-2.45,8.32,8.32,0,0,1-.3-3.59,11.25,11.25,0,0,1,1.52-4.41,19,19,0,0,1,3.27-4.19A20.16,20.16,0,0,1,70,18.08,11.29,11.29,0,0,1,74.61,16.61Zm0.38,5a4.21,4.21,0,0,0-1.33.63,7.81,7.81,0,0,0-1.33,1.17A11.32,11.32,0,0,0,71.1,25q-0.57.9-1.06,1.82a13.61,13.61,0,0,0,4.27-1.52,8.74,8.74,0,0,0,2.5-2,1.31,1.31,0,0,0,.35-1.52Q76.79,21.24,75,21.62Z"/><path class="cls-1" d="M91.33,17.76A7,7,0,0,1,93,17.21a6,6,0,0,1,1.69-.08,3.76,3.76,0,0,1,1.36.38,1.41,1.41,0,0,1,.73.79,2.61,2.61,0,0,1-.68,2.15,30.6,30.6,0,0,0-2,3.57,19,19,0,0,1,2.83-3.62A13.81,13.81,0,0,1,100.1,18a8.44,8.44,0,0,1,3.29-1,6.6,6.6,0,0,1,3.19.52,1.79,1.79,0,0,1,1,1.12,4.21,4.21,0,0,1,.16,1.5,9.71,9.71,0,0,1-.44,1.85,26.43,26.43,0,0,1,2.12-1.8,18.8,18.8,0,0,1,2.18-1.52,20.63,20.63,0,0,1,2.5-1.31,6.18,6.18,0,0,1,2.59-.41,5.5,5.5,0,0,1,2.29.63A4.19,4.19,0,0,1,120.6,19a3.21,3.21,0,0,1,.52,1.93,4.39,4.39,0,0,1-.79,1.85q-0.74,1.14-1.77,2.45t-2.23,2.64q-1.2,1.33-2.15,2.48a22,22,0,0,0-1.47,1.93q-0.52.79-.24,1a1.09,1.09,0,0,0,1-.19,14.64,14.64,0,0,0,1.58-1q0.9-.63,1.93-1.47t2-1.66l1.69-1.5q0.76-.68,1.14-1.06a2.19,2.19,0,0,1,1.12-.65,1.11,1.11,0,0,1,.87.11,0.83,0.83,0,0,1,.27.76A2.92,2.92,0,0,1,123.4,28a18.27,18.27,0,0,1-1.88,2.07q-1.28,1.25-2.78,2.59t-3,2.48a18.9,18.9,0,0,1-2.53,1.69,5.72,5.72,0,0,1-2.48.6,8.12,8.12,0,0,1-2.75-.35,5.85,5.85,0,0,1-2.23-1.25,2.78,2.78,0,0,1-.93-2.15,3.44,3.44,0,0,1,.65-1.82,16.73,16.73,0,0,1,1.55-2q0.9-1,1.88-2A23.4,23.4,0,0,0,110.58,26a5.7,5.7,0,0,0,.93-1.5,0.72,0.72,0,0,0-.3-1q-0.54-.33-1.63.52a19.65,19.65,0,0,0-2.42,2.31q-1.33,1.47-2.75,3.29t-2.64,3.49q-1.23,1.66-2.1,2.91t-1.09,1.52a2.06,2.06,0,0,1-1.28.57A3.87,3.87,0,0,1,95.44,38a3.55,3.55,0,0,1-1.63-1.17,3.37,3.37,0,0,1-.63-2.31,3.42,3.42,0,0,1,.65-1.58q0.65-1,1.55-2.26t1.91-2.56q1-1.33,1.77-2.45a12.93,12.93,0,0,0,1.12-1.91q0.35-.79-0.08-1t-1.72.63a26,26,0,0,0-2.64,2.4q-1.47,1.5-3.1,3.35t-3.08,3.57l-2.53,3a18.3,18.3,0,0,1-1.47,1.61,2.92,2.92,0,0,1-1.55.6,5.22,5.22,0,0,1-1.91-.14A4.83,4.83,0,0,1,80.47,37a1.64,1.64,0,0,1-.73-1.25,4.83,4.83,0,0,1,.65-2q0.71-1.47,1.82-3.38t2.5-4q1.39-2.12,2.7-4t2.37-3.13A6,6,0,0,1,91.33,17.76Z"/><path class="cls-1" d="M135,17a19,19,0,0,1,6.32-.33,7.55,7.55,0,0,1,4.44,1.91,5,5,0,0,1,1.31,4.22q-0.25,2.7-3.08,6.62a21.42,21.42,0,0,1-4.25,4.41,21.82,21.82,0,0,1-4.79,2.83,19.06,19.06,0,0,1-4.87,1.36,16.83,16.83,0,0,1-4.47.05A9.46,9.46,0,0,1,122.07,37a4.85,4.85,0,0,1-2.1-2.23,6.75,6.75,0,0,1-.11-5.06A16,16,0,0,1,123,24.32a23.82,23.82,0,0,1,5.39-4.57A19.85,19.85,0,0,1,135,17Zm-5.94,16.39a4.14,4.14,0,0,0,2.86-.71,13.84,13.84,0,0,0,2.86-2.4,19.58,19.58,0,0,0,2.42-3.24,16,16,0,0,0,1.55-3.29,4.86,4.86,0,0,0,.25-2.56,1.34,1.34,0,0,0-1.5-1,3.93,3.93,0,0,0-2,.93,21.29,21.29,0,0,0-2.67,2.34,31.4,31.4,0,0,0-2.64,3.08,18.86,18.86,0,0,0-2,3.13,5.11,5.11,0,0,0-.63,2.53A1.36,1.36,0,0,0,129.07,33.44Z"/><path class="cls-1" d="M152,16.94q0.76-.33,1.8-0.71t2.29-.76q1.14-1.36,2.15-2.37A9,9,0,0,1,160,11.66a26.17,26.17,0,0,1,4.85-2.45q1.8-.6,2.4.76a1.69,1.69,0,0,1-.41,1.12q-0.52.84-1.44,2.1,2-.38,3.43-0.52a3.17,3.17,0,0,1,1.8.14,1.76,1.76,0,0,1,.57.73,2.26,2.26,0,0,1,.19,1.17,3.31,3.31,0,0,1-.52,1.42,4.54,4.54,0,0,1-1.5,1.42,4.88,4.88,0,0,1-1.36.57,19.08,19.08,0,0,1-2,.44q-1.14.19-2.45,0.35t-2.67.27q-1.58,2.07-3.08,4.14t-2.59,3.89a23.22,23.22,0,0,0-1.63,3.19,2,2,0,0,0-.11,1.91,1.83,1.83,0,0,0,2.18.63,10.17,10.17,0,0,0,3-1.52,26.45,26.45,0,0,0,3.08-2.56q1.5-1.44,2.37-2.42a3.1,3.1,0,0,1,1.63-1.12,1.12,1.12,0,0,1,1.14.33,1.61,1.61,0,0,1,.27,1.28,3.16,3.16,0,0,1-.93,1.69q-0.82.93-2.21,2.34t-2.94,2.83A35.79,35.79,0,0,1,158,36.32a9,9,0,0,1-2.78,1.47,17.21,17.21,0,0,1-2.89.46,10.77,10.77,0,0,1-3.16-.19,6.61,6.61,0,0,1-2.64-1.17,3.2,3.2,0,0,1-1.23-2.48,5.93,5.93,0,0,1,.52-2.61,32.52,32.52,0,0,1,1.69-3.62q1.06-2,2.45-4.19t2.86-4.27l-1.63.16a0.82,0.82,0,0,1-.9-0.22,1,1,0,0,1,0-.82,3,3,0,0,1,.65-1A3.84,3.84,0,0,1,152,16.94Z"/><path class="cls-1" d="M176.82,16.61a13.16,13.16,0,0,1,3.24.19,11.65,11.65,0,0,1,3,.93,5.67,5.67,0,0,1,2.07,1.61,3,3,0,0,1,.6,2.29,7,7,0,0,1-.93,2.29,8.93,8.93,0,0,1-2.45,2.56,17.67,17.67,0,0,1-4.44,2.26A29.08,29.08,0,0,1,171,30.17a4.17,4.17,0,0,0,.05,1.8,1.47,1.47,0,0,0,1,1,6,6,0,0,0,3.73.35,13.78,13.78,0,0,0,4-1.52,27.62,27.62,0,0,0,3.81-2.59q1.82-1.47,3.29-2.83a3.21,3.21,0,0,1,1.47-.9,1.53,1.53,0,0,1,1.2.08,1,1,0,0,1,.38,1,3.41,3.41,0,0,1-.93,1.74A28.78,28.78,0,0,1,185.37,32a30.35,30.35,0,0,1-4.79,3.32,25.17,25.17,0,0,1-5.5,2.29,15.09,15.09,0,0,1-5.83.49,9.88,9.88,0,0,1-2.34-.65,6,6,0,0,1-2.12-1.47,6.79,6.79,0,0,1-1.44-2.45,8.32,8.32,0,0,1-.3-3.59,11.25,11.25,0,0,1,1.52-4.41,19,19,0,0,1,3.27-4.19,20.16,20.16,0,0,1,4.33-3.21A11.29,11.29,0,0,1,176.82,16.61Zm0.38,5a4.21,4.21,0,0,0-1.33.63,7.81,7.81,0,0,0-1.33,1.17A11.32,11.32,0,0,0,173.31,25q-0.57.9-1.06,1.82a13.61,13.61,0,0,0,4.27-1.52,8.74,8.74,0,0,0,2.5-2,1.31,1.31,0,0,0,.35-1.52Q179,21.24,177.2,21.62Z"/><path class="cls-1" d="M191.74,20.42a6.68,6.68,0,0,1,1.85-1,9.7,9.7,0,0,1,2.34-.6,4.1,4.1,0,0,1,1.93.16,1,1,0,0,1,.63,1.28,8.41,8.41,0,0,1-1.06,2.56q-0.9,1.58-2.37,3.81t-3.4,5.23q-1.93,3-4.22,6.81a15.27,15.27,0,0,1-3.87,4.52,13.47,13.47,0,0,1-4.06,2.12,10.45,10.45,0,0,1-3.68.49,11,11,0,0,1-2.67-.44,4.82,4.82,0,0,1-1.69-1,3.7,3.7,0,0,1-1-1.36,2.59,2.59,0,0,1-.16-1.47,1.94,1.94,0,0,1,.79-1.23,2.79,2.79,0,0,1,2-.68,3.33,3.33,0,0,1,1.5.63,7.6,7.6,0,0,1,1.12,1,0.93,0.93,0,0,0,.9.41,3.65,3.65,0,0,0,1.85-1.47A31.8,31.8,0,0,0,180.66,37q1.17-1.93,2.48-4.3T185.86,28q1.42-2.31,2.89-4.33A17.72,17.72,0,0,1,191.74,20.42ZM197,10a5.29,5.29,0,0,1,3.27-.33,4.27,4.27,0,0,1,2.21,1.31,3.18,3.18,0,0,1,.76,2.21,3.23,3.23,0,0,1-1.12,2.31,5.57,5.57,0,0,1-2.89,1.72,3.65,3.65,0,0,1-2.45-.33,3.91,3.91,0,0,1-1.61-1.69,3.8,3.8,0,0,1-.35-2.42,3.4,3.4,0,0,1,.82-1.77A3.58,3.58,0,0,1,197,10Z"/><path class="cls-1" d="M212.65,17a19,19,0,0,1,6.32-.33,7.55,7.55,0,0,1,4.44,1.91,5,5,0,0,1,1.31,4.22q-0.25,2.7-3.08,6.62a21.42,21.42,0,0,1-4.25,4.41,21.82,21.82,0,0,1-4.79,2.83,19.06,19.06,0,0,1-4.87,1.36,16.83,16.83,0,0,1-4.47.05A9.46,9.46,0,0,1,199.72,37a4.85,4.85,0,0,1-2.1-2.23,6.75,6.75,0,0,1-.11-5.06,16,16,0,0,1,3.16-5.36,23.82,23.82,0,0,1,5.39-4.57A19.85,19.85,0,0,1,212.65,17Zm-5.94,16.39a4.14,4.14,0,0,0,2.86-.71,13.84,13.84,0,0,0,2.86-2.4,19.58,19.58,0,0,0,2.42-3.24,16,16,0,0,0,1.55-3.29,4.86,4.86,0,0,0,.25-2.56,1.34,1.34,0,0,0-1.5-1,3.93,3.93,0,0,0-2,.93,21.29,21.29,0,0,0-2.67,2.34,31.4,31.4,0,0,0-2.64,3.08,18.86,18.86,0,0,0-2,3.13,5.11,5.11,0,0,0-.63,2.53A1.36,1.36,0,0,0,206.71,33.44Z"/>
	</symbol>

	<symbol id="icon-twitter" viewBox="0 0 20 20">
		<title>Twitter icon</title>
		<path d="M1,2.5v15A1.5,1.5,0,0,0,2.5,19h15A1.5,1.5,0,0,0,19,17.5V2.5A1.5,1.5,0,0,0,17.5,1H2.5A1.5,1.5,0,0,0,1,2.5ZM15.15,7.93A7,7,0,0,1,4.37,14.15a5,5,0,0,0,3.65-1,2.46,2.46,0,0,1-2.3-1.71,2.48,2.48,0,0,0,1.11,0,2.46,2.46,0,0,1-2-2.45A2.45,2.45,0,0,0,6,9.24,2.47,2.47,0,0,1,5.21,6a7,7,0,0,0,5.07,2.57,2.46,2.46,0,0,1,4.2-2.24A4.93,4.93,0,0,0,16,5.68,2.47,2.47,0,0,1,15,7a4.93,4.93,0,0,0,1.41-.39A5,5,0,0,1,15.15,7.93Z"/>
	</symbol>

	<symbol id="icon-facebook" viewBox="0 0 20 20">
		<title>Facebook icon</title>
		<path class="cls-1" d="M1,17.5A1.5,1.5,0,0,0,2.5,19h15A1.5,1.5,0,0,0,19,17.5h0v-15A1.5,1.5,0,0,0,17.51,1h-15A1.5,1.5,0,0,0,1,2.49s0,0,0,0Zm9.38-.75v-6H8.88V8.51h1.5c0-3.87.17-4.13,4.88-4.13V6.63c-2.48,0-2.25.14-2.25,1.86h2.25v2.25H13v6H10.38Z"/>
	</symbol>

	<symbol id="icon-github" viewBox="0 0 20 20">
		<title>Github icon</title>
		<path d="M1,2.5v15A1.5,1.5,0,0,0,2.5,19h15A1.5,1.5,0,0,0,19,17.5V2.5A1.5,1.5,0,0,0,17.5,1H2.5A1.5,1.5,0,0,0,1,2.5ZM11.9,15.69c-.3.06-.4-.13-.4-.29V13.76a1.43,1.43,0,0,0-.41-1.11c1.34-.15,2.74-.66,2.74-3a2.31,2.31,0,0,0-.62-1.61,2.15,2.15,0,0,0-.06-1.59s-.5-.16-1.65.62a5.67,5.67,0,0,0-3,0c-1.15-.78-1.65-.62-1.65-.62a2.16,2.16,0,0,0-.06,1.59,2.32,2.32,0,0,0-.62,1.61c0,2.3,1.4,2.81,2.73,3a1.28,1.28,0,0,0-.38.8A1.28,1.28,0,0,1,6.78,13a1.26,1.26,0,0,0-.92-.62s-.58,0,0,.37a1.59,1.59,0,0,1,.67.88s.35,1.07,2,.71V15.4c0,.16-.1.34-.4.29a6,6,0,1,1,3.8,0Z"/>
	</symbol>

	<symbol id="icon-url" viewBox="0 0 20 20">
		<title>Url icon</title>
		<path class="cls-1" d="M17.51,1h-15A1.5,1.5,0,0,0,1,2.49v15A1.5,1.5,0,0,0,2.5,19h15A1.5,1.5,0,0,0,19,17.5v-15A1.5,1.5,0,0,0,17.51,1ZM10,13.54,8.59,15a2.5,2.5,0,0,1-3.54-3.54L6.46,10a2.51,2.51,0,0,1,2.12-.7L7.17,10.71,6.11,11.77l-.35.35a1.5,1.5,0,0,0,2.12,2.12l.35-.35,1.06-1.06,1.41-1.41A2.51,2.51,0,0,1,10,13.54Zm2.83-7.08a.5.5,0,0,1,.71.71L7.17,13.54a.5.5,0,0,1-.71-.71ZM15,8.59,13.54,10a2.51,2.51,0,0,1-2.12.7l1.41-1.41.35-.35,1.06-1.06a1.5,1.5,0,0,0-2.12-2.12L11.06,6.82l-.35.35L9.3,8.58A2.51,2.51,0,0,1,10,6.46l1.41-1.41A2.5,2.5,0,0,1,15,8.59Z"/>
	</symbol>

	<symbol id="icon-flag" viewBox="0 0 20 20">
		<title>Flag icon</title>
		<path class="cls-1" d="M18,2s-4,1-7,0C8.18,1.07,7,2,7,2L6,10s1.16-.95,4,0c3,1,7,0,7,0L16,6Z"/><path class="cls-1" d="M5.52,2a.5.5,0,0,0-.5.5l-2,15a.5.5,0,0,0,.5.5.5.5,0,0,0,.5-.5l2-15A.5.5,0,0,0,5.52,2Z"/>
	</symbol>
	
	<symbol id="icon-close--small" viewBox="0 0 19 19">
		<title>Close icon</title>
		<line class="cls-1" x1="16.5" y1="2.5" x2="2.5" y2="16.5"/>
		<line class="cls-1" x1="2.5" y1="2.5" x2="16.5" y2="16.5"/>
	</symbol>
	<symbol id="icon-close--normal" viewBox="0 0 19 19">
		<title>Close icon</title>
		<line class="cls-1" x1="16.5" y1="2.5" x2="2.5" y2="16.5"/>
		<line class="cls-1" x1="2.5" y1="2.5" x2="16.5" y2="16.5"/>
	</symbol>
	<symbol id="icon-close--large" viewBox="0 0 19 19">
		<title>Close icon</title>
		<line class="cls-1" x1="16.5" y1="2.5" x2="2.5" y2="16.5"/>
		<line class="cls-1" x1="2.5" y1="2.5" x2="16.5" y2="16.5"/>
	</symbol>

	<symbol id="icon-fully-remote" viewBox="0 0 20 20">
		<rect fill="#d9d9d9" class="cls-1" x="1" y="1" width="18" height="18" rx="9" ry="9"/>
		<circle fill="#fff" class="cls-2" cx="10" cy="10" r="5"/>	
	</symbol>

	<symbol id="icon-remote-first" viewBox="0 0 20 20">
		<rect fill="#d9d9d9" class="cls-1" x="1" y="1" width="18" height="18" rx="9" ry="9"/>
		<path fill="#fff" class="cls-2" d="M10,10h5a5,5,0,1,1-5-5Z"/>	
	</symbol>

	<symbol id="icon-remote-friendly" viewBox="0 0 20 20">
		<rect fill="#d9d9d9" class="cls-1" x="1" y="1" width="18" height="18" rx="9" ry="9"/>
		<path fill="#fff" class="cls-2" d="M10,10h5A5,5,0,0,1,5,10Z"/>
	</symbol>

	<symbol id="icon-menu" viewBox="0 0 20 20">
		<title>Show menu icon</title>
		<rect class="cls-1" x="2.01" y="4" width="16" height="2"/>
		<rect class="cls-1" x="2.01" y="9" width="16" height="2"/>
		<rect class="cls-1" x="2.01" y="14" width="16" height="2"/>
	</symbol>

	<symbol id="icon-menu" viewBox="0 0 20 20">
		<title>Show filters icon</title>
		<rect class="cls-1" x="2.01" y="4" width="16" height="2" rx="1"/>
		<rect class="cls-1" x="2.01" y="9" width="16" height="2" rx="1"/>
		<rect class="cls-1" x="2.01" y="14" width="16" height="2" rx="1"/>
	</symbol>

	<symbol id="icon-location" viewBox="0 0 20 20">
		<title>Location icon</title>
		<path fill="#d9d9d9" d="M17,8A7,7,0,1,0,4.26,12h0l4.89,6.52h0a1,1,0,0,0,1.67,0h0L15.74,12h0A7,7,0,0,0,17,8Zm-7,2a2,2,0,1,1,2-2A2,2,0,0,1,10,10Z"/>
		<circle fill="#fff" cx="10" cy="8" r="2"/>
	</symbol>

	<symbol id="icon-people" viewBox="0 0 20 20">
		<title>People icon</title>
		<circle cx="5.99" cy="8" r="2"/>
		<circle cx="12" cy="8" r="3.02"/>
		<path  d="M8.62,11.76A4.93,4.93,0,0,0,6,11a5,5,0,0,0-5,5h3.6A8,8,0,0,1,8.62,11.76Z"/>
		<path  d="M12,12a7,7,0,0,0-7,7H19A7,7,0,0,0,12,12Z"/>
	</symbol>

	<symbol id="icon-tag" viewBox="0 0 20 20">
		<title>Tag icon</title>
		<path fill="#d9d9d9" d="M17.84,3.53h0A2,2,0,0,0,15.4,1.68h0l-5,1.24a1,1,0,0,0-.56.37l-7,9.29A1,1,0,0,0,3,14L9.39,18.8a1,1,0,0,0,1.4-.19l7-9.29a1,1,0,0,0,.2-.64Z"/>
		<circle fill="#fff" cx="14.05" cy="6" r="2" transform="translate(0.79 13.59) rotate(-52.92)"/>
	</symbol>

	<symbol id="icon-info" viewBox="0 0 20 20">
		<title>Info icon</title>
		<path d="M10,2a8,8,0,1,0,8,8A8,8,0,0,0,10,2Zm1,12a1,1,0,0,1-2,0V11a1,1,0,0,1,2,0Zm.37-7.1-.05.15a1.39,1.39,0,0,1-2.63,0l0-.15a1.44,1.44,0,1,1,2.73,0Z"/>
	</symbol>

	<symbol id="icon-tick" viewBox="0 0 20 20">
		<title>Tick icon</title>
		<polyline points="3 10.52 8 15.52 17 3.52"/>
	</symbol>


	<!-- Bar icons for remote level -->
	<symbol id="icon-level--friendly" viewBox="0 0 20 20">
		<title>Remote friendly icon</title>
		<rect fill="hsl(51,100%,50%)" x="2.01" y="13" width="4.71" height="5" rx="1"/>
		<rect fill="hsl(0, 0%, 85%)" x="7.66" y="6" width="4.71" height="12" rx="1"/>
		<rect fill="hsl(0, 0%, 85%)" x="13.31" y="2" width="4.71" height="16" rx="1"/>
	</symbol>

	<symbol id="icon-level--first" viewBox="0 0 20 20">
		<title>Remote first icon</title>
		<rect fill="hsl(0, 0%, 85%)" x="2.01" y="13" width="4.71" height="5" rx="1"/>
		<rect fill="hsl(51,100%,50%)" x="7.66" y="6" width="4.71" height="12" rx="1"/>
		<rect fill="hsl(0, 0%, 85%)" x="13.31" y="2" width="4.71" height="16" rx="1"/>
	</symbol>

	<symbol id="icon-level--all" viewBox="0 0 20 20">
		<title>All remote icon</title>
		<rect fill="hsl(0, 0%, 85%)" x="2.01" y="13" width="4.71" height="5" rx="1"/>
		<rect fill="hsl(0, 0%, 85%)" x="7.66" y="6" width="4.71" height="12" rx="1"/>
		<rect fill="hsl(51,100%,50%)" x="13.31" y="2" width="4.71" height="16" rx="1"/>
	</symbol>

	<!-- END -->

	<symbol id="icon-email" viewBox="0 0 20 20">
		<title>Email icon</title>
		<path class="st1" d="M9.3,9L2,5c0-0.5,0.4-1,1-1h14c0.6,0,1,0.4,1,1l-7.3,4C10.3,9.3,9.7,9.3,9.3,9z"/>
		<path class="st1" d="M11.2,9.9L18,6.1V15c0,0.5-0.4,1-1,1H3c-0.6,0-1-0.5-1-1V6.1l6.8,3.8c0.4,0.2,0.8,0.3,1.2,0.3
			C10.4,10.2,10.8,10.1,11.2,9.9z"/>
	</symbol>


	<symbol id="icon-type" viewBox="0 0 20 20">
		<title>Company type icon</title>
		<rect fill="#d9d9d9" x="2.01" y="7" width="16" height="12" rx="1" ry="1"/>
		<path fill="#d9d9d9" d="M6,6V5A1,1,0,0,1,7,4h6a1,1,0,0,1,1,1V6h1V5a2,2,0,0,0-2-2H7A2,2,0,0,0,5,5V6Z"/>
		<rect fill="#fff" x="4.01" y="9" width="12" height="1" rx="0.5" ry="0.5"/>
	</symbol>

	<symbol id="icon-founded" viewBox="0 0 20 20">
		<title>Founding years icon</title>
		<polygon class="cls-1" points="18.02 3 14.02 3 13.02 3 10.02 3 10.02 9 13.02 9 14.02 9 18.02 9 16.02 6 18.02 3"/><path class="cls-1" d="M14,18H3l5-3V3.5a.5.5,0,0,1,1,0V15Z"/>
	</symbol>

	<symbol id="icon-verified" viewBox="0 0 20 20">
		<title>Verification icon</title>
		<path fill="#04b592"  d="M19.26,10c0,1.16-1.55,2-2,3s0,2.74-.74,3.53-2.48.31-3.53.74-1.86,2-3,2-2-1.55-3-2-2.74,0-3.53-.74S3.15,14.07,2.71,13s-2-1.86-2-3,1.55-2,2-3,0-2.74.74-3.53S5.93,3.15,7,2.71s1.86-2,3-2,2,1.55,3,2,2.74,0,3.53.74.31,2.48.74,3.53S19.26,8.84,19.26,10Z"/>
		<polyline fill="none" stroke="#adfbeb" stroke-linejoin="round" stroke-width="2px" stroke-linecap="round"  class="cls-2" points="14.16 7.99 9.29 12.86 6.74 10.31"/>
	</symbol>

	<symbol id="icon-arrow--left" viewBox="0 0 20 20">
		<title>Arrow left icon</title>
		<polyline points="2.2,15 2.2,15 10,4.1 17.8,15 "/>
	</symbol>

	<symbol id="icon-arrow--right" viewBox="0 0 20 20">
		<title>Arrow right icon</title>
		<polyline points="2.2,15 2.2,15 10,4.1 17.8,15 "/>
	</symbol>

	<symbol id="icon-open" viewBox="0 0 20 20">
		<title>Open in a new window icon</title>
		<path d="M17.5,12v3.5c0,1.1-0.9,2-2,2h-11c-1.1,0-2-0.9-2-2v-11c0-1.1,0.9-2,2-2H8"/>
		<polyline points="12,2.5 17.5,2.5 17.5,8 "/>
		<line x1="17" y1="3" x2="7" y2="13"/>
	</symbol>


	<symbol id="icon-other" viewBox="0 0 18 18">
		<title>Other benefits icon</title>
		<circle fill="#fffccc" cx="9" cy="9" r="9"/>
		<path fill="#FFE100" d="M7.2,10l-0.8,2.4C6.3,12.7,6.7,13,7,12.8l5.9-4.3c0.3-0.2,0.1-0.7-0.2-0.7l-2.5,0L9.3,5.4
			c-0.1-0.3-0.6-0.3-0.7,0L7.9,7.8l-2.5,0C5,7.8,4.9,8.3,5.1,8.5L7.2,10z"/>
		<path fill="#FFE100" d="M11,10.4l-1.7,1l1.8,1.3c0.3,0.2,0.7-0.1,0.6-0.4L11,10.4z"/>
	</symbol>

	<symbol id="icon-health" viewBox="0 0 18 18">
		<title>Health benefits icon</title>
		<circle fill="#fedae5" cx="9" cy="9" r="9"/>
		<path fill="#fa457d" d="M12.4,7.7h-2v-2c0-0.1-0.1-0.2-0.2-0.2H7.9c-0.1,0-0.2,0.1-0.2,0.2v2h-2c-0.1,0-0.2,0.1-0.2,0.2v2.2
			c0,0.1,0.1,0.2,0.2,0.2h2v2c0,0.1,0.1,0.2,0.2,0.2h2.2c0.1,0,0.2-0.1,0.2-0.2v-2h2c0.1,0,0.2-0.1,0.2-0.2V7.9
			C12.6,7.8,12.5,7.7,12.4,7.7z"/>
	</symbol>

	<symbol id="icon-money" viewBox="0 0 18 18">
		<title>Compensation benefits icon</title>
		<circle fill="#d0f5e5" cx="9" cy="9" r="9"/>
		<path fill="#13cc7f" d="M14.4,8.7l-2.8-3.9c-0.1-0.1-0.3-0.1-0.4-0.1L4.6,9.5C4.4,9.6,4.4,9.7,4.5,9.9l2.9,3.9
			c0.1,0.1,0.3,0.1,0.4,0.1l6.6-4.8C14.4,9,14.4,8.9,14.4,8.7z M10.4,10.6c-0.5,0.4-1.3,0-1.8-0.7C8,9.2,8,8.3,8.5,8
			c0.5-0.4,1.3,0,1.8,0.7C10.8,9.4,10.9,10.3,10.4,10.6z"/>
		<path fill="#13cc7f" d="M8,4.1C7.8,4,7.7,4.1,7.6,4.2L5.8,7.9l4-2.9L8,4.1z"/>
	</symbol>

	<symbol id="icon-timeoff" viewBox="0 0 18 18">
		<title>Timeoff benefits icon</title>
		<circle fill="#d2f9fb" cx="9" cy="9" r="9"/>
		<path fill="#1ee0ea" d="M13,5.9h-1.7V5.7c0-0.1-0.1-0.2-0.2-0.2h-0.5c-0.1,0-0.2,0.1-0.2,0.2v0.2H7.6V5.7c0-0.1-0.1-0.2-0.2-0.2H6.9
			c-0.1,0-0.2,0.1-0.2,0.2v0.2H5C4.9,5.9,4.7,6,4.7,6.2v1.2h8.5V6.2C13.3,6,13.1,5.9,13,5.9z"/>
		<path fill="#1ee0ea" d="M4.7,11.8c0,0.1,0.1,0.2,0.2,0.2h4.8c-0.2-0.3-0.4-0.7-0.4-1.2c0-1.2,1-2.1,2.1-2.1c0.7,0,1.3,0.3,1.7,0.8V7.8
			H4.7V11.8z M7.6,9c0-0.1,0.1-0.2,0.2-0.2h0.5c0.1,0,0.2,0.1,0.2,0.2v0.5c0,0.1-0.1,0.2-0.2,0.2H7.8c-0.1,0-0.2-0.1-0.2-0.2V9z
			 M7.6,10.4c0-0.1,0.1-0.2,0.2-0.2h0.5c0.1,0,0.2,0.1,0.2,0.2v0.5c0,0.1-0.1,0.2-0.2,0.2H7.8c-0.1,0-0.2-0.1-0.2-0.2V10.4z M5.7,9
			c0-0.1,0.1-0.2,0.2-0.2h0.5c0.1,0,0.2,0.1,0.2,0.2v0.5c0,0.1-0.1,0.2-0.2,0.2H5.9c-0.1,0-0.2-0.1-0.2-0.2V9z M5.7,10.4
			c0-0.1,0.1-0.2,0.2-0.2h0.5c0.1,0,0.2,0.1,0.2,0.2v0.5c0,0.1-0.1,0.2-0.2,0.2H5.9c-0.1,0-0.2-0.1-0.2-0.2V10.4z"/>
		<path fill="#1ee0ea" d="M11.6,9.2c-0.9,0-1.6,0.7-1.6,1.6s0.7,1.6,1.6,1.6c0.9,0,1.6-0.7,1.6-1.6S12.5,9.2,11.6,9.2z M12.5,11.1h-0.9
			c-0.1,0-0.2-0.1-0.2-0.2V9.9c0-0.1,0.1-0.2,0.2-0.2c0.1,0,0.2,0.1,0.2,0.2v0.7h0.7c0.1,0,0.2,0.1,0.2,0.2
			C12.8,11,12.7,11.1,12.5,11.1z"/>
	</symbol>

</svg>



